<svg xmlns="http://www.w3.org/2000/svg" xmlns:xlink="http://www.w3.org/1999/xlink" viewBox="0 0 677.45 264.54"><defs><style>.cls-1{font-size:148.32px;font-family:Bariol-Bold, Bariol;font-weight:700;}.cls-1,.cls-4{fill:#f36d54;}.cls-2{letter-spacing:0em;}.cls-3{fill:none;stroke-linecap:round;stroke-miterlimit:10;stroke-width:16.69px;stroke:url(#linear-gradient);}.cls-5{font-size:21.47px;fill:#231f20;font-family:Montserrat-Medium, Montserrat;font-weight:500;}</style><linearGradient id="linear-gradient" y1="150.31" x2="198.23" y2="150.31" gradientUnits="userSpaceOnUse"><stop offset="0" stop-color="#8fc640"/><stop offset="1" stop-color="#06a64f"/></linearGradient></defs><title>Asset 3</title><g id="Layer_2" data-name="Layer 2"><g id="Layer_1-2" data-name="Layer 1"><text class="cls-1" transform="translate(216.77 124.07)">ancient<tspan class="cls-2" x="0" y="99.69">r</tspan><tspan x="47.31" y="99.69">oots</tspan></text><path class="cls-3" d="M106.52,150.31A41.69,41.69,0,0,0,147.82,192c23.71.22,42.58-20,42.06-43.73A90.8,90.8,0,0,0,94.53,59.64c-46.61,2.3-84.31,40.43-86.12,87.07a90.81,90.81,0,0,0,131.32,84.81"/><path class="cls-4" d="M123.53,134.22c.56.69,1.09,1.39,1.61,2.11,23.61,32.69-24,70.81-50.74,40.61-.58-.66-1.15-1.34-1.7-2C59.4,158.3,57.4,135.54,65,113.18,88.46,110.67,110.24,117.61,123.53,134.22Z"/><text class="cls-5" transform="translate(644.63 28.43)">TM</text></g></g></svg>